<svg width="321" height="446" viewBox="0 0 321 446" fill="none" xmlns="http://www.w3.org/2000/svg">
<g clip-path="url(#clip0_6_105)">
<path d="M97.5 177.81L80.27 172L58.49 174.09L52.76 182.25L70.05 188.58L93.04 186.22L97.5 177.81Z" fill="black" fill-opacity="0.05"/>
<path d="M136.29 212.88L160.8 210.04L163.16 199.97L142.65 193.06L119.51 195.55L115.54 205.27L136.29 212.88Z" fill="black" fill-opacity="0.05"/>
<path d="M80.9 209.06L61.94 201.67L37.19 204.33L29.87 214.74L48.85 222.9L75.18 219.86L80.9 209.06Z" fill="black" fill-opacity="0.05"/>
<path d="M38.34 240.06L9.69 243.56L0 257.34L20.98 268.25L51.78 264.17L59.39 249.8L38.34 240.06Z" fill="black" fill-opacity="0.05"/>
<path d="M216.54 242.28L242.73 238.81L241.99 226.55L217.18 218.18L192.54 221.19L191.2 232.99L216.54 242.28Z" fill="black" fill-opacity="0.05"/>
<path d="M154.1 237.61L131.01 228.6L104.47 231.84L99.28 244.57L122.64 254.6L150.98 250.86L154.1 237.61Z" fill="black" fill-opacity="0.05"/>
<path d="M245.33 273.2L216.54 261.97L187.99 265.99L186.21 281.92L215.72 294.6L246.36 289.86L245.33 273.2Z" fill="black" fill-opacity="0.05"/>
<path d="M115.93 276.04L84.82 280.42L77.72 297.82L104.46 311.73L138.1 306.51L142.38 288.28L115.93 276.04Z" fill="black" fill-opacity="0.05"/>
<path d="M214.15 321.51L180.25 327.16L177.66 349.79L212.87 368.09L249.76 361.21L248.34 337.34L214.15 321.51Z" fill="black" fill-opacity="0.05"/>
<path d="M316.85 278.99L344.87 274.64L339.42 259.36L308.76 249.02L282.46 252.73L285.14 267.37L316.85 278.99Z" fill="black" fill-opacity="0.05"/>
<path d="M360.27 318.02L323.44 303.66L292.66 308.79L296.42 329.28L334.8 345.77L367.95 339.57L360.27 318.02Z" fill="black" fill-opacity="0.05"/>
<path d="M344.62 381.83L307.53 389.41L313.16 420.13L361.79 445.4L402.37 435.85L390.71 403.16L344.62 381.83Z" fill="black" fill-opacity="0.05"/>
</g>
<g clip-path="url(#clip1_6_105)">
<path d="M177.004 194.438L177.368 199.55L190.377 202L203.409 199.55L203.823 194.438L190.427 191.76L177.004 194.438Z" fill="black" fill-opacity="0.05"/>
<path d="M205.479 174.451L190.565 171.124L175.618 174.451L176.065 180.771L190.499 183.782L204.966 180.771L205.479 174.451Z" fill="black" fill-opacity="0.05"/>
<path d="M224.402 185.001L223.336 190.673L236.318 193.379L250.73 190.673L252.657 185.001L239.316 182.03L224.402 185.001Z" fill="black" fill-opacity="0.05"/>
<path d="M274.468 180.771L287.344 183.782L303.368 180.771L307.162 174.451L293.97 171.124L277.3 174.451L274.468 180.771Z" fill="black" fill-opacity="0.05"/>
<path d="M207.511 149.407L190.692 145.171L173.834 149.407L174.403 157.419L190.615 161.211L206.865 157.419L207.511 149.407Z" fill="black" fill-opacity="0.05"/>
<path d="M228.588 162.741L227.251 169.827L241.652 173.192L257.82 169.827L260.233 162.741L245.396 159.004L228.588 162.741Z" fill="black" fill-opacity="0.05"/>
<path d="M233.955 134.138L232.243 143.27L248.411 147.578L266.859 143.27L269.962 134.138L253.242 129.293L233.955 134.138Z" fill="black" fill-opacity="0.05"/>
<path d="M284.997 157.374L299.243 161.167L317.465 157.374L322.275 149.363L307.653 145.127L288.587 149.363L284.997 157.374Z" fill="black" fill-opacity="0.05"/>
<path d="M298.377 127.502L314.307 132.42L335.394 127.502L341.678 117.034L325.3 111.451L303.065 117.034L298.377 127.502Z" fill="black" fill-opacity="0.05"/>
<path d="M210.112 116.757L190.808 111.163L171.454 116.757L172.205 127.252L190.709 132.181L209.262 127.252L210.112 116.757Z" fill="black" fill-opacity="0.05"/>
<path d="M213.712 73.0459L191.09 65.3283L168.395 73.0459L169.417 87.3668L190.946 94.0199L212.547 87.3668L213.712 73.0459Z" fill="black" fill-opacity="0.05"/>
<path d="M240.989 96.6867L238.703 108.867L257.129 114.561L278.559 108.867L282.706 96.6867L263.573 90.1611L240.989 96.6867Z" fill="black" fill-opacity="0.05"/>
<path d="M316.278 87.3668L334.356 94.0199L359.408 87.3668L368 73.0459L349.386 65.3283L322.683 73.0459L316.278 87.3668Z" fill="black" fill-opacity="0.05"/>
<path d="M164 11.3104L165.474 31.985L191.211 41.4546L217.042 31.985L218.72 11.3104L191.415 7.69619e-05L164 11.3104Z" fill="black" fill-opacity="0.05"/>
<path d="M247.455 62.2734L268.858 70.1462L294.412 62.2734L300.21 45.2303L277.874 35.9769L250.658 45.2303L247.455 62.2734Z" fill="black" fill-opacity="0.05"/>
</g>
<defs>
<clipPath id="clip0_6_105">
<rect width="642.36" height="273.4" fill="white" transform="translate(0 172)"/>
</clipPath>
<clipPath id="clip1_6_105">
<rect width="202" height="204" fill="white" transform="translate(164 202) rotate(-90)"/>
</clipPath>
</defs>
</svg>
