<svg width="72" height="66" viewBox="0 0 72 66" fill="none" xmlns="http://www.w3.org/2000/svg">
<path d="M39.8025 6.90556L37.1475 0.803982C36.7087 -0.255496 35.3362 -0.293791 34.8525 0.803982L32.1975 6.90556L26.3137 7.86292C25.2675 8.04162 24.8175 9.50958 25.5938 10.3903L29.8687 15.1133L28.8562 21.7638C28.6987 22.9509 29.7787 23.87 30.7462 23.3211L36.0225 20.1554L41.265 23.27C42.2325 23.8189 43.3237 22.8999 43.155 21.7127L42.1425 15.0623L46.4175 10.3903C47.1825 9.52234 46.7437 8.05439 45.6975 7.86292L39.8137 6.90556H39.8025ZM28.8 32.6777C26.8088 32.6777 25.2 34.5031 25.2 36.7624V61.2708C25.2 63.5302 26.8088 65.3556 28.8 65.3556H43.2C45.1912 65.3556 46.8 63.5302 46.8 61.2708V36.7624C46.8 34.5031 45.1912 32.6777 43.2 32.6777H28.8ZM3.6 40.8472C1.60875 40.8472 0 42.6725 0 44.9319V61.2708C0 63.5302 1.60875 65.3556 3.6 65.3556H18C19.9912 65.3556 21.6 63.5302 21.6 61.2708V44.9319C21.6 42.6725 19.9912 40.8472 18 40.8472H3.6ZM50.4 53.1014V61.2708C50.4 63.5302 52.0088 65.3556 54 65.3556H68.4C70.3913 65.3556 72 63.5302 72 61.2708V53.1014C72 50.842 70.3913 49.0166 68.4 49.0166H54C52.0088 49.0166 50.4 50.842 50.4 53.1014Z" fill="black"/>
</svg>
