<svg width="327" height="82" viewBox="0 0 327 82" fill="none" xmlns="http://www.w3.org/2000/svg">
<path d="M78.2852 57V32.376H81.9092C82.6772 32.376 83.1812 32.736 83.4212 33.456L83.8052 35.28C84.2372 34.8 84.6852 34.36 85.1492 33.96C85.6292 33.56 86.1332 33.216 86.6612 32.928C87.2052 32.64 87.7812 32.416 88.3892 32.256C89.0132 32.08 89.6932 31.992 90.4292 31.992C91.9812 31.992 93.2532 32.416 94.2452 33.264C95.2532 34.096 96.0052 35.208 96.5012 36.6C96.8852 35.784 97.3652 35.088 97.9412 34.512C98.5172 33.92 99.1492 33.44 99.8372 33.072C100.525 32.704 101.253 32.432 102.021 32.256C102.805 32.08 103.589 31.992 104.373 31.992C105.733 31.992 106.941 32.2 107.997 32.616C109.053 33.032 109.941 33.64 110.661 34.44C111.381 35.24 111.925 36.216 112.293 37.368C112.677 38.52 112.869 39.84 112.869 41.328V57H106.941V41.328C106.941 39.76 106.597 38.584 105.909 37.8C105.221 37 104.213 36.6 102.885 36.6C102.277 36.6 101.709 36.704 101.181 36.912C100.669 37.12 100.213 37.424 99.8132 37.824C99.4292 38.208 99.1252 38.696 98.9012 39.288C98.6772 39.88 98.5652 40.56 98.5652 41.328V57H92.6132V41.328C92.6132 39.68 92.2772 38.48 91.6052 37.728C90.9492 36.976 89.9732 36.6 88.6772 36.6C87.8292 36.6 87.0292 36.816 86.2772 37.248C85.5412 37.664 84.8532 38.24 84.2132 38.976V57H78.2852ZM118.763 57V21.336H124.691V35.4C125.667 34.36 126.771 33.536 128.003 32.928C129.235 32.304 130.675 31.992 132.323 31.992C133.667 31.992 134.891 32.272 135.995 32.832C137.115 33.376 138.075 34.176 138.875 35.232C139.691 36.288 140.315 37.592 140.747 39.144C141.195 40.696 141.419 42.48 141.419 44.496C141.419 46.336 141.171 48.04 140.675 49.608C140.179 51.176 139.467 52.536 138.539 53.688C137.627 54.84 136.515 55.744 135.203 56.4C133.907 57.04 132.451 57.36 130.835 57.36C130.083 57.36 129.395 57.28 128.771 57.12C128.147 56.976 127.579 56.768 127.067 56.496C126.555 56.224 126.075 55.896 125.627 55.512C125.195 55.112 124.779 54.672 124.379 54.192L124.115 55.848C124.019 56.264 123.851 56.56 123.611 56.736C123.387 56.912 123.075 57 122.675 57H118.763ZM130.283 36.6C129.051 36.6 127.995 36.864 127.115 37.392C126.251 37.904 125.443 38.632 124.691 39.576V50.616C125.363 51.448 126.091 52.032 126.875 52.368C127.675 52.688 128.539 52.848 129.467 52.848C130.363 52.848 131.171 52.68 131.891 52.344C132.611 52.008 133.219 51.496 133.715 50.808C134.227 50.12 134.619 49.256 134.891 48.216C135.163 47.16 135.299 45.92 135.299 44.496C135.299 43.056 135.179 41.84 134.939 40.848C134.715 39.84 134.387 39.024 133.955 38.4C133.523 37.776 132.995 37.32 132.371 37.032C131.763 36.744 131.067 36.6 130.283 36.6ZM165.362 57H162.698C162.138 57 161.698 56.92 161.378 56.76C161.058 56.584 160.818 56.24 160.658 55.728L160.13 53.976C159.506 54.536 158.89 55.032 158.282 55.464C157.69 55.88 157.074 56.232 156.434 56.52C155.794 56.808 155.114 57.024 154.394 57.168C153.674 57.312 152.874 57.384 151.994 57.384C150.954 57.384 149.994 57.248 149.114 56.976C148.234 56.688 147.474 56.264 146.834 55.704C146.21 55.144 145.722 54.448 145.37 53.616C145.018 52.784 144.842 51.816 144.842 50.712C144.842 49.784 145.082 48.872 145.562 47.976C146.058 47.064 146.874 46.248 148.01 45.528C149.146 44.792 150.658 44.184 152.546 43.704C154.434 43.224 156.778 42.952 159.578 42.888V41.448C159.578 39.8 159.226 38.584 158.522 37.8C157.834 37 156.826 36.6 155.498 36.6C154.538 36.6 153.738 36.712 153.098 36.936C152.458 37.16 151.898 37.416 151.418 37.704C150.954 37.976 150.522 38.224 150.122 38.448C149.722 38.672 149.282 38.784 148.802 38.784C148.402 38.784 148.058 38.68 147.77 38.472C147.482 38.264 147.25 38.008 147.074 37.704L145.994 35.808C148.826 33.216 152.242 31.92 156.242 31.92C157.682 31.92 158.962 32.16 160.082 32.64C161.218 33.104 162.178 33.76 162.962 34.608C163.746 35.44 164.338 36.44 164.738 37.608C165.154 38.776 165.362 40.056 165.362 41.448V57ZM153.842 53.304C154.45 53.304 155.01 53.248 155.522 53.136C156.034 53.024 156.514 52.856 156.962 52.632C157.426 52.408 157.866 52.136 158.282 51.816C158.714 51.48 159.146 51.088 159.578 50.64V46.488C157.85 46.568 156.402 46.72 155.234 46.944C154.082 47.152 153.154 47.424 152.45 47.76C151.746 48.096 151.242 48.488 150.938 48.936C150.65 49.384 150.506 49.872 150.506 50.4C150.506 51.44 150.81 52.184 151.418 52.632C152.042 53.08 152.85 53.304 153.842 53.304ZM177.503 32.376V57.84C177.503 58.912 177.359 59.92 177.071 60.864C176.799 61.808 176.351 62.632 175.727 63.336C175.119 64.056 174.311 64.616 173.303 65.016C172.311 65.432 171.095 65.64 169.655 65.64C169.095 65.64 168.575 65.6 168.095 65.52C167.615 65.456 167.127 65.344 166.631 65.184L166.823 61.992C166.871 61.672 166.999 61.464 167.207 61.368C167.415 61.288 167.815 61.248 168.407 61.248C168.999 61.248 169.495 61.184 169.895 61.056C170.311 60.944 170.639 60.752 170.879 60.48C171.135 60.224 171.311 59.88 171.407 59.448C171.519 59.016 171.575 58.48 171.575 57.84V32.376H177.503ZM178.391 25.2C178.391 25.712 178.287 26.192 178.079 26.64C177.871 27.088 177.591 27.48 177.239 27.816C176.903 28.152 176.503 28.424 176.039 28.632C175.575 28.824 175.079 28.92 174.551 28.92C174.039 28.92 173.551 28.824 173.087 28.632C172.639 28.424 172.247 28.152 171.911 27.816C171.575 27.48 171.303 27.088 171.095 26.64C170.903 26.192 170.807 25.712 170.807 25.2C170.807 24.672 170.903 24.176 171.095 23.712C171.303 23.248 171.575 22.848 171.911 22.512C172.247 22.176 172.639 21.912 173.087 21.72C173.551 21.512 174.039 21.408 174.551 21.408C175.079 21.408 175.575 21.512 176.039 21.72C176.503 21.912 176.903 22.176 177.239 22.512C177.591 22.848 177.871 23.248 178.079 23.712C178.287 24.176 178.391 24.672 178.391 25.2ZM203.378 57H200.714C200.154 57 199.714 56.92 199.394 56.76C199.074 56.584 198.834 56.24 198.674 55.728L198.146 53.976C197.522 54.536 196.906 55.032 196.298 55.464C195.706 55.88 195.09 56.232 194.45 56.52C193.81 56.808 193.13 57.024 192.41 57.168C191.69 57.312 190.89 57.384 190.01 57.384C188.97 57.384 188.01 57.248 187.13 56.976C186.25 56.688 185.49 56.264 184.85 55.704C184.226 55.144 183.738 54.448 183.386 53.616C183.034 52.784 182.858 51.816 182.858 50.712C182.858 49.784 183.098 48.872 183.578 47.976C184.074 47.064 184.89 46.248 186.026 45.528C187.162 44.792 188.674 44.184 190.562 43.704C192.45 43.224 194.794 42.952 197.594 42.888V41.448C197.594 39.8 197.242 38.584 196.538 37.8C195.85 37 194.842 36.6 193.514 36.6C192.554 36.6 191.754 36.712 191.114 36.936C190.474 37.16 189.914 37.416 189.434 37.704C188.97 37.976 188.538 38.224 188.138 38.448C187.738 38.672 187.298 38.784 186.818 38.784C186.418 38.784 186.074 38.68 185.786 38.472C185.498 38.264 185.266 38.008 185.09 37.704L184.01 35.808C186.842 33.216 190.258 31.92 194.258 31.92C195.698 31.92 196.978 32.16 198.098 32.64C199.234 33.104 200.194 33.76 200.978 34.608C201.762 35.44 202.354 36.44 202.754 37.608C203.17 38.776 203.378 40.056 203.378 41.448V57ZM191.858 53.304C192.466 53.304 193.026 53.248 193.538 53.136C194.05 53.024 194.53 52.856 194.978 52.632C195.442 52.408 195.882 52.136 196.298 51.816C196.73 51.48 197.162 51.088 197.594 50.64V46.488C195.866 46.568 194.418 46.72 193.25 46.944C192.098 47.152 191.17 47.424 190.466 47.76C189.762 48.096 189.258 48.488 188.954 48.936C188.666 49.384 188.522 49.872 188.522 50.4C188.522 51.44 188.826 52.184 189.434 52.632C190.058 53.08 190.866 53.304 191.858 53.304ZM226.535 57C225.767 57 225.263 56.64 225.023 55.92L224.543 53.544C224.031 54.12 223.495 54.64 222.935 55.104C222.375 55.568 221.767 55.968 221.111 56.304C220.471 56.64 219.775 56.896 219.023 57.072C218.287 57.264 217.487 57.36 216.623 57.36C215.279 57.36 214.047 57.08 212.927 56.52C211.807 55.96 210.839 55.152 210.023 54.096C209.223 53.024 208.599 51.704 208.151 50.136C207.719 48.568 207.503 46.776 207.503 44.76C207.503 42.936 207.751 41.24 208.247 39.672C208.743 38.104 209.455 36.744 210.383 35.592C211.311 34.44 212.423 33.544 213.719 32.904C215.015 32.248 216.471 31.92 218.087 31.92C219.463 31.92 220.639 32.144 221.615 32.592C222.591 33.024 223.463 33.608 224.231 34.344V21.336H230.159V57H226.535ZM218.639 52.656C219.871 52.656 220.919 52.4 221.783 51.888C222.647 51.376 223.463 50.648 224.231 49.704V38.664C223.559 37.848 222.823 37.272 222.023 36.936C221.239 36.6 220.391 36.432 219.479 36.432C218.583 36.432 217.767 36.6 217.031 36.936C216.311 37.272 215.695 37.784 215.183 38.472C214.687 39.144 214.303 40.008 214.031 41.064C213.759 42.104 213.623 43.336 213.623 44.76C213.623 46.2 213.735 47.424 213.959 48.432C214.199 49.424 214.535 50.24 214.967 50.88C215.399 51.504 215.927 51.96 216.551 52.248C217.175 52.52 217.871 52.656 218.639 52.656ZM247.094 31.992C248.934 31.992 250.598 32.288 252.086 32.88C253.59 33.472 254.87 34.312 255.926 35.4C256.982 36.488 257.798 37.816 258.374 39.384C258.95 40.952 259.238 42.704 259.238 44.64C259.238 46.592 258.95 48.352 258.374 49.92C257.798 51.488 256.982 52.824 255.926 53.928C254.87 55.032 253.59 55.88 252.086 56.472C250.598 57.064 248.934 57.36 247.094 57.36C245.254 57.36 243.582 57.064 242.078 56.472C240.574 55.88 239.286 55.032 238.214 53.928C237.158 52.824 236.334 51.488 235.742 49.92C235.166 48.352 234.878 46.592 234.878 44.64C234.878 42.704 235.166 40.952 235.742 39.384C236.334 37.816 237.158 36.488 238.214 35.4C239.286 34.312 240.574 33.472 242.078 32.88C243.582 32.288 245.254 31.992 247.094 31.992ZM247.094 52.8C249.142 52.8 250.654 52.112 251.63 50.736C252.622 49.36 253.118 47.344 253.118 44.688C253.118 42.032 252.622 40.008 251.63 38.616C250.654 37.224 249.142 36.528 247.094 36.528C245.014 36.528 243.478 37.232 242.486 38.64C241.494 40.032 240.998 42.048 240.998 44.688C240.998 47.328 241.494 49.344 242.486 50.736C243.478 52.112 245.014 52.8 247.094 52.8ZM263.863 57V32.376H267.343C267.951 32.376 268.375 32.488 268.615 32.712C268.855 32.936 269.015 33.32 269.095 33.864L269.455 36.84C270.335 35.32 271.367 34.12 272.551 33.24C273.735 32.36 275.063 31.92 276.535 31.92C277.751 31.92 278.759 32.2 279.559 32.76L278.791 37.2C278.743 37.488 278.639 37.696 278.479 37.824C278.319 37.936 278.103 37.992 277.831 37.992C277.591 37.992 277.263 37.936 276.847 37.824C276.431 37.712 275.879 37.656 275.191 37.656C273.959 37.656 272.903 38 272.023 38.688C271.143 39.36 270.399 40.352 269.791 41.664V57H263.863ZM293.633 31.992C295.185 31.992 296.609 32.24 297.905 32.736C299.217 33.232 300.345 33.96 301.289 34.92C302.233 35.864 302.969 37.032 303.497 38.424C304.025 39.8 304.289 41.376 304.289 43.152C304.289 43.6 304.265 43.976 304.217 44.28C304.185 44.568 304.113 44.8 304.001 44.976C303.905 45.136 303.769 45.256 303.593 45.336C303.417 45.4 303.193 45.432 302.921 45.432H287.705C287.881 47.96 288.561 49.816 289.745 51C290.929 52.184 292.497 52.776 294.449 52.776C295.409 52.776 296.233 52.664 296.921 52.44C297.625 52.216 298.233 51.968 298.745 51.696C299.273 51.424 299.729 51.176 300.113 50.952C300.513 50.728 300.897 50.616 301.265 50.616C301.505 50.616 301.713 50.664 301.889 50.76C302.065 50.856 302.217 50.992 302.345 51.168L304.073 53.328C303.417 54.096 302.681 54.744 301.865 55.272C301.049 55.784 300.193 56.2 299.297 56.52C298.417 56.824 297.513 57.04 296.585 57.168C295.673 57.296 294.785 57.36 293.921 57.36C292.209 57.36 290.617 57.08 289.145 56.52C287.673 55.944 286.393 55.104 285.305 54C284.217 52.88 283.361 51.504 282.737 49.872C282.113 48.224 281.801 46.32 281.801 44.16C281.801 42.48 282.073 40.904 282.617 39.432C283.161 37.944 283.937 36.656 284.945 35.568C285.969 34.464 287.209 33.592 288.665 32.952C290.137 32.312 291.793 31.992 293.633 31.992ZM293.753 36.24C292.025 36.24 290.673 36.728 289.697 37.704C288.721 38.68 288.097 40.064 287.825 41.856H298.961C298.961 41.088 298.857 40.368 298.649 39.696C298.441 39.008 298.121 38.408 297.689 37.896C297.257 37.384 296.713 36.984 296.057 36.696C295.401 36.392 294.633 36.24 293.753 36.24ZM323.714 37.176C323.554 37.432 323.386 37.616 323.21 37.728C323.034 37.824 322.81 37.872 322.538 37.872C322.25 37.872 321.938 37.792 321.602 37.632C321.282 37.472 320.906 37.296 320.474 37.104C320.042 36.896 319.546 36.712 318.986 36.552C318.442 36.392 317.794 36.312 317.042 36.312C315.874 36.312 314.954 36.56 314.282 37.056C313.61 37.552 313.274 38.2 313.274 39C313.274 39.528 313.442 39.976 313.778 40.344C314.13 40.696 314.586 41.008 315.146 41.28C315.722 41.552 316.37 41.8 317.09 42.024C317.81 42.232 318.546 42.464 319.298 42.72C320.05 42.976 320.786 43.272 321.506 43.608C322.226 43.928 322.866 44.344 323.426 44.856C324.002 45.352 324.458 45.952 324.794 46.656C325.146 47.36 325.322 48.208 325.322 49.2C325.322 50.384 325.106 51.48 324.674 52.488C324.242 53.48 323.61 54.344 322.778 55.08C321.946 55.8 320.914 56.368 319.682 56.784C318.466 57.184 317.066 57.384 315.482 57.384C314.634 57.384 313.802 57.304 312.986 57.144C312.186 57 311.41 56.792 310.658 56.52C309.922 56.248 309.234 55.928 308.594 55.56C307.97 55.192 307.418 54.792 306.938 54.36L308.306 52.104C308.482 51.832 308.69 51.624 308.93 51.48C309.17 51.336 309.474 51.264 309.842 51.264C310.21 51.264 310.554 51.368 310.874 51.576C311.21 51.784 311.594 52.008 312.026 52.248C312.458 52.488 312.962 52.712 313.538 52.92C314.13 53.128 314.874 53.232 315.77 53.232C316.474 53.232 317.074 53.152 317.57 52.992C318.082 52.816 318.498 52.592 318.818 52.32C319.154 52.048 319.394 51.736 319.538 51.384C319.698 51.016 319.778 50.64 319.778 50.256C319.778 49.68 319.602 49.208 319.25 48.84C318.914 48.472 318.458 48.152 317.882 47.88C317.322 47.608 316.674 47.368 315.938 47.16C315.218 46.936 314.474 46.696 313.706 46.44C312.954 46.184 312.21 45.888 311.474 45.552C310.754 45.2 310.106 44.76 309.53 44.232C308.97 43.704 308.514 43.056 308.162 42.288C307.826 41.52 307.658 40.592 307.658 39.504C307.658 38.496 307.858 37.536 308.258 36.624C308.658 35.712 309.242 34.92 310.01 34.248C310.794 33.56 311.762 33.016 312.914 32.616C314.082 32.2 315.426 31.992 316.946 31.992C318.642 31.992 320.186 32.272 321.578 32.832C322.97 33.392 324.13 34.128 325.058 35.04L323.714 37.176Z" fill="#17E88F"/>
<path d="M32.2142 7.38171C32.2142 26.8282 34.0951 85.1375 34.0951 65.691" stroke="#17E88F" stroke-width="8" stroke-linecap="round"/>
<path d="M4 25.2507C31.1053 18.3168 57.8456 10.533 85.1941 4.56031C88.7877 3.77548 90.0177 3.26375 87.6497 6.96374C85.7665 9.90627 84.226 12.5757 82.9996 15.846" stroke="#17E88F" stroke-width="8" stroke-linecap="round"/>
<path d="M19.0475 51.5839C29.7917 47.3839 40.3604 44.0601 51.9641 44.0601" stroke="#17E88F" stroke-width="8" stroke-linecap="round"/>
<path d="M19 78C41.8484 73.5342 64.3238 70 89 70" stroke="#17E88F" stroke-width="8" stroke-linecap="round"/>
</svg>
