<svg width="534" height="274" viewBox="0 0 534 274" fill="none" xmlns="http://www.w3.org/2000/svg">
<g clip-path="url(#clip0_6_280)">
<path d="M27.29 40.8801L51.8 38.0401L54.16 27.9701L33.65 21.0601L10.51 23.5501L6.54 33.2701L27.29 40.8801Z" fill="black" fill-opacity="0.05"/>
<path d="M107.54 70.2799L133.73 66.8099L132.99 54.5499L108.18 46.1799L83.54 49.1899L82.2 60.9899L107.54 70.2799Z" fill="black" fill-opacity="0.05"/>
<path d="M45.1 65.6101L22.01 56.6001L-4.53 59.8401L-9.72 72.5701L13.64 82.6001L41.98 78.8601L45.1 65.6101Z" fill="black" fill-opacity="0.05"/>
<path d="M136.33 101.2L107.54 89.97L78.99 93.99L77.21 109.92L106.72 122.6L137.36 117.86L136.33 101.2Z" fill="black" fill-opacity="0.05"/>
<path d="M6.93 104.04L-24.18 108.42L-31.28 125.82L-4.54 139.73L29.1 134.51L33.38 116.28L6.93 104.04Z" fill="black" fill-opacity="0.05"/>
<path d="M105.15 149.51L71.25 155.16L68.66 177.79L103.87 196.09L140.76 189.21L139.34 165.34L105.15 149.51Z" fill="black" fill-opacity="0.05"/>
<path d="M207.85 106.99L235.87 102.64L230.42 87.36L199.76 77.02L173.46 80.73L176.14 95.37L207.85 106.99Z" fill="black" fill-opacity="0.05"/>
<path d="M334.86 153.56L364.82 147.96L352.08 128.41L313.26 115.32L285.2 120L294.11 138.63L334.86 153.56Z" fill="black" fill-opacity="0.05"/>
<path d="M251.27 146.02L214.44 131.66L183.66 136.79L187.42 157.28L225.8 173.77L258.95 167.57L251.27 146.02Z" fill="black" fill-opacity="0.05"/>
<path d="M235.62 209.83L198.53 217.41L204.16 248.13L252.79 273.4L293.37 263.85L281.71 231.16L235.62 209.83Z" fill="black" fill-opacity="0.05"/>
<path d="M508.89 181.27L458.2 164.18L428.37 170.27L447.28 194.74L501.54 214.62L533.36 207.14L508.89 181.27Z" fill="black" fill-opacity="0.05"/>
<path d="M352.6 185.54L319.45 192.31L332.48 219.61L384.4 241.92L420.19 233.5L401.35 204.56L352.6 185.54Z" fill="black" fill-opacity="0.05"/>
</g>
<defs>
<clipPath id="clip0_6_280">
<rect width="642.36" height="273.4" fill="white" transform="translate(-109)"/>
</clipPath>
</defs>
</svg>
