<svg width="102" height="119" viewBox="0 0 102 119" fill="none" xmlns="http://www.w3.org/2000/svg">
<g clip-path="url(#clip0_37_80)">
<path d="M7.64917 114.545L7.86354 117.556L15.516 119L23.1814 117.556L23.4251 114.545L15.5452 112.967L7.64917 114.545Z" fill="white" fill-opacity="0.2"/>
<path d="M24.3996 102.77L15.6265 100.811L6.83398 102.77L7.09708 106.494L15.5875 108.267L24.0975 106.494L24.3996 102.77Z" fill="white" fill-opacity="0.2"/>
<path d="M35.5307 108.986L34.9038 112.327L42.54 113.921L51.0175 112.327L52.1511 108.986L44.3037 107.235L35.5307 108.986Z" fill="white" fill-opacity="0.2"/>
<path d="M64.981 106.494L72.5555 108.267L81.9814 106.494L84.2128 102.77L76.4531 100.811L66.6472 102.77L64.981 106.494Z" fill="white" fill-opacity="0.2"/>
<path d="M25.5948 88.017L15.7012 85.5217L5.78479 88.017L6.11934 92.7366L15.6557 94.9707L25.2148 92.7366L25.5948 88.017Z" fill="white" fill-opacity="0.2"/>
<path d="M37.9927 95.8722L37.2067 100.046L45.6776 102.029L55.188 100.046L56.6074 95.8722L47.8798 93.6708L37.9927 95.8722Z" fill="white" fill-opacity="0.2"/>
<path d="M41.1498 79.022L40.1429 84.4014L49.6533 86.9392L60.5051 84.4014L62.3305 79.022L52.4954 76.1673L41.1498 79.022Z" fill="white" fill-opacity="0.2"/>
<path d="M71.175 92.7105L79.5551 94.9446L90.2737 92.7105L93.1028 87.9909L84.5019 85.4955L73.2863 87.9909L71.175 92.7105Z" fill="white" fill-opacity="0.2"/>
<path d="M79.045 75.1123L88.4157 78.0094L100.82 75.1123L104.516 68.9458L94.8826 65.6567L81.8027 68.9458L79.045 75.1123Z" fill="white" fill-opacity="0.2"/>
<path d="M27.1246 68.7825L15.7694 65.4869L4.38489 68.7825L4.82663 74.9654L15.7109 77.869L26.6244 74.9654L27.1246 68.7825Z" fill="white" fill-opacity="0.2"/>
<path d="M29.2424 43.0319L15.935 38.4854L2.58545 43.0319L3.18634 51.4685L15.8506 55.3879L28.557 51.4685L29.2424 43.0319Z" fill="white" fill-opacity="0.2"/>
<path d="M45.2878 56.9589L43.9431 64.1347L54.7819 67.4891L67.3877 64.1347L69.827 56.9589L58.5724 53.1146L45.2878 56.9589Z" fill="white" fill-opacity="0.2"/>
<path d="M89.5753 51.4685L100.21 55.3879L114.946 51.4685L120 43.0319L109.051 38.4854L93.3431 43.0319L89.5753 51.4685Z" fill="white" fill-opacity="0.2"/>
<path d="M-7.76236e-07 6.66302L0.867235 18.8426L16.0065 24.4212L31.201 18.8426L32.1884 6.66301L16.1267 1.07392e-05L-7.76236e-07 6.66302Z" fill="white" fill-opacity="0.2"/>
<path d="M49.0913 36.6857L61.6808 41.3237L76.7129 36.6857L80.1234 26.6455L66.9849 21.1942L50.9752 26.6455L49.0913 36.6857Z" fill="white" fill-opacity="0.2"/>
</g>
<defs>
<clipPath id="clip0_37_80">
<rect width="119" height="120" fill="white" transform="translate(0 119) rotate(-90)"/>
</clipPath>
</defs>
</svg>
