<svg width="266" height="161" viewBox="0 0 266 161" fill="none" xmlns="http://www.w3.org/2000/svg">
<g clip-path="url(#clip0_37_64)">
<path d="M15.4241 41.3865L30.8357 39.3431L30.4002 32.1235L15.8007 27.1945L1.30114 28.967L0.512611 35.9158L15.4241 41.3865Z" fill="white" fill-opacity="0.2"/>
<path d="M32.3657 59.5947L15.4241 52.9816L-1.37633 55.3489L-2.42377 64.7298L14.9415 72.1968L32.9718 69.4055L32.3657 59.5947Z" fill="white" fill-opacity="0.2"/>
<path d="M14.0176 88.0436L-5.93097 91.3708L-7.45507 104.697L13.2644 115.474L34.9725 111.422L34.1369 97.3656L14.0176 88.0436Z" fill="white" fill-opacity="0.2"/>
<path d="M74.452 63.0043L90.9405 60.4427L87.7334 51.4446L69.6914 45.3556L54.215 47.5403L55.7921 56.1616L74.452 63.0043Z" fill="white" fill-opacity="0.2"/>
<path d="M149.192 90.4285L166.822 87.1308L159.325 75.6182L136.481 67.9097L119.969 70.6657L125.212 81.6365L149.192 90.4285Z" fill="white" fill-opacity="0.2"/>
<path d="M100.003 85.9884L78.3299 77.532L60.2173 80.553L62.4299 92.6192L85.0148 102.33L104.522 98.6788L100.003 85.9884Z" fill="white" fill-opacity="0.2"/>
<path d="M90.7934 123.565L68.9676 128.029L72.2806 146.119L100.897 161L124.777 155.376L117.915 136.126L90.7934 123.565Z" fill="white" fill-opacity="0.2"/>
<path d="M251.601 106.746L221.772 96.6824L204.218 100.269L215.346 114.679L247.275 126.386L266 121.981L251.601 106.746Z" fill="white" fill-opacity="0.2"/>
<path d="M159.631 109.261L140.124 113.248L147.791 129.324L178.344 142.462L199.405 137.504L188.318 120.461L159.631 109.261Z" fill="white" fill-opacity="0.2"/>
</g>
<defs>
<clipPath id="clip0_37_64">
<rect width="378" height="161" fill="white" transform="translate(-112)"/>
</clipPath>
</defs>
</svg>
