<svg width="52" height="49" viewBox="0 0 52 49" fill="none" xmlns="http://www.w3.org/2000/svg">
<path d="M25.8025 16.4983C21.1718 16.4983 17.3929 20.0995 17.3929 24.5122C17.3929 28.9249 21.1718 32.5261 25.8025 32.5261C30.4331 32.5261 34.2121 28.9249 34.2121 24.5122C34.2121 20.0995 30.4331 16.4983 25.8025 16.4983ZM51.025 24.5122C51.025 21.1936 51.0566 17.9051 50.861 14.5926C50.6654 10.7449 49.7443 7.33018 46.7918 4.51661C43.833 1.69703 40.2559 0.825302 36.2183 0.638933C32.7358 0.452564 29.2849 0.482623 25.8088 0.482623C22.3263 0.482623 18.8754 0.452564 15.3993 0.638933C11.3617 0.825302 7.77828 1.70304 4.82577 4.51661C1.86695 7.33619 0.952176 10.7449 0.756603 14.5926C0.561031 17.9111 0.592575 21.1996 0.592575 24.5122C0.592575 27.8248 0.561031 31.1193 0.756603 34.4318C0.952176 38.2795 1.87326 41.6942 4.82577 44.5078C7.78459 47.3274 11.3617 48.1991 15.3993 48.3855C18.8818 48.5718 22.3327 48.5418 25.8088 48.5418C29.2912 48.5418 32.7422 48.5718 36.2183 48.3855C40.2559 48.1991 43.8393 47.3214 46.7918 44.5078C49.7507 41.6882 50.6654 38.2795 50.861 34.4318C51.0629 31.1193 51.025 27.8308 51.025 24.5122ZM25.8025 36.8426C18.642 36.8426 12.8632 31.3357 12.8632 24.5122C12.8632 17.6887 18.642 12.1818 25.8025 12.1818C32.963 12.1818 38.7418 17.6887 38.7418 24.5122C38.7418 31.3357 32.963 36.8426 25.8025 36.8426ZM39.2718 14.5565C37.5999 14.5565 36.2498 13.2699 36.2498 11.6768C36.2498 10.0836 37.5999 8.79709 39.2718 8.79709C40.9436 8.79709 42.2937 10.0836 42.2937 11.6768C42.2942 12.0551 42.2163 12.4298 42.0646 12.7794C41.913 13.129 41.6904 13.4466 41.4097 13.7141C41.129 13.9816 40.7956 14.1937 40.4288 14.3383C40.0619 14.4828 39.6687 14.557 39.2718 14.5565Z" fill="#17E88F"/>
</svg>
