<svg width="75" height="75" viewBox="0 0 75 75" fill="none" xmlns="http://www.w3.org/2000/svg">
<mask id="mask0_33_39" style="mask-type:alpha" maskUnits="userSpaceOnUse" x="4" y="3" width="67" height="68">
<path d="M21.0938 61.5161C25.7686 65.1987 31.5489 67.197 37.5 67.188C43.6922 67.188 49.3906 65.0693 53.9062 61.5161M29.6875 15.2302C18.8297 18.5661 10.9375 28.6739 10.9375 40.6255C10.9375 43.6333 11.4375 46.5239 12.3594 49.2193M45.3125 15.2302C56.1703 18.5661 64.0625 28.6739 64.0625 40.6255C64.0625 43.6333 63.5625 46.5239 62.6406 49.2193" stroke="white" stroke-width="5.83333"/>
<path d="M67.1875 56.2505C67.1875 58.3474 66.3625 60.2505 65.0188 61.6536C63.7639 62.9646 62.0918 63.7978 60.2895 64.0103C58.4872 64.2227 56.6672 63.8011 55.1419 62.8178C53.6167 61.8345 52.4813 60.3509 51.9307 58.6216C51.3801 56.8924 51.4488 55.0255 52.1248 53.3413C52.8008 51.6572 54.042 50.2609 55.6353 49.3922C57.2286 48.5235 59.0747 48.2366 60.8565 48.5807C62.6383 48.9249 64.2448 49.8786 65.4 51.2781C66.5553 52.6777 67.1873 54.4358 67.1875 56.2505ZM23.4375 56.2505C23.4375 58.3474 22.6125 60.2505 21.2688 61.6536C20.0139 62.9646 18.3418 63.7978 16.5395 64.0103C14.7372 64.2227 12.9172 63.8011 11.3919 62.8178C9.86666 61.8345 8.73127 60.3509 8.18071 58.6216C7.63015 56.8924 7.69875 55.0255 8.37475 53.3413C9.05075 51.6572 10.292 50.2609 11.8853 49.3922C13.4786 48.5235 15.3247 48.2366 17.1065 48.5807C18.8883 48.9249 20.4948 49.8786 21.65 51.2781C22.8053 52.6777 23.4373 54.4358 23.4375 56.2505ZM45.3125 14.063C45.3125 16.1599 44.4875 18.063 43.1438 19.4661C41.8889 20.7771 40.2168 21.6103 38.4145 21.8228C36.6122 22.0352 34.7922 21.6136 33.2669 20.6303C31.7417 19.647 30.6063 18.1634 30.0557 16.4341C29.5051 14.7049 29.5738 12.838 30.2498 11.1538C30.9258 9.46966 32.167 8.07338 33.7603 7.20469C35.3536 6.336 37.1997 6.0491 38.9815 6.39324C40.7633 6.73737 42.3698 7.69109 43.525 9.09063C44.6803 10.4902 45.3123 12.2482 45.3125 14.063Z" fill="white" stroke="white" stroke-width="5.83333" stroke-linecap="round" stroke-linejoin="round"/>
</mask>
<g mask="url(#mask0_33_39)">
<path d="M0 0.00050354H75V75.0005H0V0.00050354Z" fill="black"/>
</g>
</svg>
