<svg width="413" height="81" viewBox="0 0 413 81" fill="none" xmlns="http://www.w3.org/2000/svg">
<path d="M69.168 61V36.376H72.648C73.256 36.376 73.68 36.488 73.92 36.712C74.16 36.936 74.32 37.32 74.4 37.864L74.76 40.84C75.64 39.32 76.672 38.12 77.856 37.24C79.04 36.36 80.368 35.92 81.84 35.92C83.056 35.92 84.064 36.2 84.864 36.76L84.096 41.2C84.048 41.488 83.944 41.696 83.784 41.824C83.624 41.936 83.408 41.992 83.136 41.992C82.896 41.992 82.568 41.936 82.152 41.824C81.736 41.712 81.184 41.656 80.496 41.656C79.264 41.656 78.208 42 77.328 42.688C76.448 43.36 75.704 44.352 75.096 45.664V61H69.168ZM98.9378 35.992C100.49 35.992 101.914 36.24 103.21 36.736C104.522 37.232 105.65 37.96 106.594 38.92C107.538 39.864 108.274 41.032 108.802 42.424C109.33 43.8 109.594 45.376 109.594 47.152C109.594 47.6 109.57 47.976 109.522 48.28C109.49 48.568 109.418 48.8 109.306 48.976C109.21 49.136 109.074 49.256 108.898 49.336C108.722 49.4 108.498 49.432 108.226 49.432H93.0098C93.1858 51.96 93.8658 53.816 95.0498 55C96.2338 56.184 97.8018 56.776 99.7538 56.776C100.714 56.776 101.538 56.664 102.226 56.44C102.93 56.216 103.538 55.968 104.05 55.696C104.578 55.424 105.034 55.176 105.418 54.952C105.818 54.728 106.202 54.616 106.57 54.616C106.81 54.616 107.018 54.664 107.194 54.76C107.37 54.856 107.522 54.992 107.65 55.168L109.378 57.328C108.722 58.096 107.986 58.744 107.17 59.272C106.354 59.784 105.498 60.2 104.602 60.52C103.722 60.824 102.818 61.04 101.89 61.168C100.978 61.296 100.09 61.36 99.2258 61.36C97.5138 61.36 95.9218 61.08 94.4498 60.52C92.9778 59.944 91.6978 59.104 90.6098 58C89.5218 56.88 88.6658 55.504 88.0418 53.872C87.4178 52.224 87.1058 50.32 87.1058 48.16C87.1058 46.48 87.3778 44.904 87.9218 43.432C88.4658 41.944 89.2418 40.656 90.2498 39.568C91.2738 38.464 92.5138 37.592 93.9698 36.952C95.4418 36.312 97.0978 35.992 98.9378 35.992ZM99.0578 40.24C97.3298 40.24 95.9778 40.728 95.0018 41.704C94.0258 42.68 93.4018 44.064 93.1298 45.856H104.266C104.266 45.088 104.162 44.368 103.954 43.696C103.746 43.008 103.426 42.408 102.994 41.896C102.562 41.384 102.018 40.984 101.362 40.696C100.706 40.392 99.9378 40.24 99.0578 40.24ZM114.402 61V36.376H118.026C118.794 36.376 119.298 36.736 119.538 37.456L119.922 39.28C120.354 38.8 120.802 38.36 121.266 37.96C121.746 37.56 122.25 37.216 122.778 36.928C123.322 36.64 123.898 36.416 124.506 36.256C125.13 36.08 125.81 35.992 126.546 35.992C128.098 35.992 129.37 36.416 130.362 37.264C131.37 38.096 132.122 39.208 132.618 40.6C133.002 39.784 133.482 39.088 134.058 38.512C134.634 37.92 135.266 37.44 135.954 37.072C136.642 36.704 137.37 36.432 138.138 36.256C138.922 36.08 139.706 35.992 140.49 35.992C141.85 35.992 143.058 36.2 144.114 36.616C145.17 37.032 146.058 37.64 146.778 38.44C147.498 39.24 148.042 40.216 148.41 41.368C148.794 42.52 148.986 43.84 148.986 45.328V61H143.058V45.328C143.058 43.76 142.714 42.584 142.026 41.8C141.338 41 140.33 40.6 139.002 40.6C138.394 40.6 137.826 40.704 137.298 40.912C136.786 41.12 136.33 41.424 135.93 41.824C135.546 42.208 135.242 42.696 135.018 43.288C134.794 43.88 134.682 44.56 134.682 45.328V61H128.73V45.328C128.73 43.68 128.394 42.48 127.722 41.728C127.066 40.976 126.09 40.6 124.794 40.6C123.946 40.6 123.146 40.816 122.394 41.248C121.658 41.664 120.97 42.24 120.33 42.976V61H114.402ZM161.121 36.376V61H155.193V36.376H161.121ZM162.009 29.2C162.009 29.712 161.905 30.192 161.697 30.64C161.489 31.088 161.209 31.48 160.857 31.816C160.521 32.152 160.121 32.424 159.657 32.632C159.193 32.824 158.697 32.92 158.169 32.92C157.657 32.92 157.169 32.824 156.705 32.632C156.257 32.424 155.865 32.152 155.529 31.816C155.193 31.48 154.921 31.088 154.713 30.64C154.521 30.192 154.425 29.712 154.425 29.2C154.425 28.672 154.521 28.176 154.713 27.712C154.921 27.248 155.193 26.848 155.529 26.512C155.865 26.176 156.257 25.912 156.705 25.72C157.169 25.512 157.657 25.408 158.169 25.408C158.697 25.408 159.193 25.512 159.657 25.72C160.121 25.912 160.521 26.176 160.857 26.512C161.209 26.848 161.489 27.248 161.697 27.712C161.905 28.176 162.009 28.672 162.009 29.2ZM178.352 35.992C180.192 35.992 181.856 36.288 183.344 36.88C184.848 37.472 186.128 38.312 187.184 39.4C188.24 40.488 189.056 41.816 189.632 43.384C190.208 44.952 190.496 46.704 190.496 48.64C190.496 50.592 190.208 52.352 189.632 53.92C189.056 55.488 188.24 56.824 187.184 57.928C186.128 59.032 184.848 59.88 183.344 60.472C181.856 61.064 180.192 61.36 178.352 61.36C176.512 61.36 174.84 61.064 173.336 60.472C171.832 59.88 170.544 59.032 169.472 57.928C168.416 56.824 167.592 55.488 167 53.92C166.424 52.352 166.136 50.592 166.136 48.64C166.136 46.704 166.424 44.952 167 43.384C167.592 41.816 168.416 40.488 169.472 39.4C170.544 38.312 171.832 37.472 173.336 36.88C174.84 36.288 176.512 35.992 178.352 35.992ZM178.352 56.8C180.4 56.8 181.912 56.112 182.888 54.736C183.88 53.36 184.376 51.344 184.376 48.688C184.376 46.032 183.88 44.008 182.888 42.616C181.912 41.224 180.4 40.528 178.352 40.528C176.272 40.528 174.736 41.232 173.744 42.64C172.752 44.032 172.256 46.048 172.256 48.688C172.256 51.328 172.752 53.344 173.744 54.736C174.736 56.112 176.272 56.8 178.352 56.8ZM209.737 41.176C209.577 41.432 209.409 41.616 209.233 41.728C209.057 41.824 208.833 41.872 208.561 41.872C208.273 41.872 207.961 41.792 207.625 41.632C207.305 41.472 206.929 41.296 206.497 41.104C206.065 40.896 205.569 40.712 205.009 40.552C204.465 40.392 203.817 40.312 203.065 40.312C201.897 40.312 200.977 40.56 200.305 41.056C199.633 41.552 199.297 42.2 199.297 43C199.297 43.528 199.465 43.976 199.801 44.344C200.153 44.696 200.609 45.008 201.169 45.28C201.745 45.552 202.393 45.8 203.113 46.024C203.833 46.232 204.569 46.464 205.321 46.72C206.073 46.976 206.809 47.272 207.529 47.608C208.249 47.928 208.889 48.344 209.449 48.856C210.025 49.352 210.481 49.952 210.817 50.656C211.169 51.36 211.345 52.208 211.345 53.2C211.345 54.384 211.129 55.48 210.697 56.488C210.265 57.48 209.633 58.344 208.801 59.08C207.969 59.8 206.937 60.368 205.705 60.784C204.489 61.184 203.089 61.384 201.505 61.384C200.657 61.384 199.825 61.304 199.009 61.144C198.209 61 197.433 60.792 196.681 60.52C195.945 60.248 195.257 59.928 194.617 59.56C193.993 59.192 193.441 58.792 192.961 58.36L194.329 56.104C194.505 55.832 194.713 55.624 194.953 55.48C195.193 55.336 195.497 55.264 195.865 55.264C196.233 55.264 196.577 55.368 196.897 55.576C197.233 55.784 197.617 56.008 198.049 56.248C198.481 56.488 198.985 56.712 199.561 56.92C200.153 57.128 200.897 57.232 201.793 57.232C202.497 57.232 203.097 57.152 203.593 56.992C204.105 56.816 204.521 56.592 204.841 56.32C205.177 56.048 205.417 55.736 205.561 55.384C205.721 55.016 205.801 54.64 205.801 54.256C205.801 53.68 205.625 53.208 205.273 52.84C204.937 52.472 204.481 52.152 203.905 51.88C203.345 51.608 202.697 51.368 201.961 51.16C201.241 50.936 200.497 50.696 199.729 50.44C198.977 50.184 198.233 49.888 197.497 49.552C196.777 49.2 196.129 48.76 195.553 48.232C194.993 47.704 194.537 47.056 194.185 46.288C193.849 45.52 193.681 44.592 193.681 43.504C193.681 42.496 193.881 41.536 194.281 40.624C194.681 39.712 195.265 38.92 196.033 38.248C196.817 37.56 197.785 37.016 198.937 36.616C200.105 36.2 201.449 35.992 202.969 35.992C204.665 35.992 206.209 36.272 207.601 36.832C208.993 37.392 210.153 38.128 211.081 39.04L209.737 41.176ZM232.364 47.44V61H225.908V26.296H236.492C238.86 26.296 240.884 26.544 242.564 27.04C244.26 27.52 245.644 28.2 246.716 29.08C247.804 29.96 248.596 31.016 249.092 32.248C249.604 33.464 249.859 34.808 249.859 36.28C249.859 37.448 249.684 38.552 249.332 39.592C248.996 40.632 248.5 41.576 247.844 42.424C247.204 43.272 246.404 44.016 245.444 44.656C244.5 45.296 243.42 45.808 242.204 46.192C243.02 46.656 243.724 47.32 244.316 48.184L253.004 61H247.196C246.636 61 246.156 60.888 245.756 60.664C245.372 60.44 245.044 60.12 244.772 59.704L237.476 48.592C237.204 48.176 236.9 47.88 236.564 47.704C236.244 47.528 235.764 47.44 235.124 47.44H232.364ZM232.364 42.808H236.396C237.612 42.808 238.668 42.656 239.564 42.352C240.476 42.048 241.22 41.632 241.796 41.104C242.388 40.56 242.828 39.92 243.116 39.184C243.404 38.448 243.548 37.64 243.548 36.76C243.548 35 242.964 33.648 241.796 32.704C240.644 31.76 238.876 31.288 236.492 31.288H232.364V42.808ZM276.105 61H273.441C272.881 61 272.441 60.92 272.121 60.76C271.801 60.584 271.561 60.24 271.401 59.728L270.873 57.976C270.249 58.536 269.633 59.032 269.025 59.464C268.433 59.88 267.817 60.232 267.177 60.52C266.537 60.808 265.857 61.024 265.137 61.168C264.417 61.312 263.617 61.384 262.737 61.384C261.697 61.384 260.737 61.248 259.857 60.976C258.977 60.688 258.217 60.264 257.577 59.704C256.953 59.144 256.465 58.448 256.113 57.616C255.761 56.784 255.585 55.816 255.585 54.712C255.585 53.784 255.825 52.872 256.305 51.976C256.801 51.064 257.617 50.248 258.753 49.528C259.889 48.792 261.401 48.184 263.289 47.704C265.177 47.224 267.521 46.952 270.321 46.888V45.448C270.321 43.8 269.969 42.584 269.265 41.8C268.577 41 267.569 40.6 266.241 40.6C265.281 40.6 264.481 40.712 263.841 40.936C263.201 41.16 262.641 41.416 262.161 41.704C261.697 41.976 261.265 42.224 260.865 42.448C260.465 42.672 260.025 42.784 259.545 42.784C259.145 42.784 258.801 42.68 258.513 42.472C258.225 42.264 257.993 42.008 257.817 41.704L256.737 39.808C259.569 37.216 262.985 35.92 266.985 35.92C268.425 35.92 269.705 36.16 270.825 36.64C271.961 37.104 272.921 37.76 273.705 38.608C274.489 39.44 275.081 40.44 275.481 41.608C275.897 42.776 276.105 44.056 276.105 45.448V61ZM264.585 57.304C265.193 57.304 265.753 57.248 266.265 57.136C266.777 57.024 267.257 56.856 267.705 56.632C268.169 56.408 268.609 56.136 269.025 55.816C269.457 55.48 269.889 55.088 270.321 54.64V50.488C268.593 50.568 267.145 50.72 265.977 50.944C264.825 51.152 263.897 51.424 263.193 51.76C262.489 52.096 261.985 52.488 261.681 52.936C261.393 53.384 261.249 53.872 261.249 54.4C261.249 55.44 261.553 56.184 262.161 56.632C262.785 57.08 263.593 57.304 264.585 57.304ZM281.934 61V36.376H285.558C286.326 36.376 286.83 36.736 287.07 37.456L287.478 39.4C287.974 38.888 288.494 38.424 289.038 38.008C289.598 37.592 290.182 37.232 290.79 36.928C291.414 36.624 292.078 36.392 292.782 36.232C293.486 36.072 294.254 35.992 295.086 35.992C296.43 35.992 297.622 36.224 298.662 36.688C299.702 37.136 300.566 37.776 301.254 38.608C301.958 39.424 302.486 40.408 302.838 41.56C303.206 42.696 303.39 43.952 303.39 45.328V61H297.462V45.328C297.462 43.824 297.11 42.664 296.406 41.848C295.718 41.016 294.678 40.6 293.286 40.6C292.262 40.6 291.302 40.832 290.406 41.296C289.51 41.76 288.662 42.392 287.862 43.192V61H281.934ZM316.223 40.84H317.735C318.343 40.84 318.847 40.76 319.247 40.6C319.647 40.424 319.991 40.152 320.279 39.784L329.855 27.664C330.255 27.152 330.671 26.8 331.103 26.608C331.551 26.4 332.111 26.296 332.783 26.296H338.351L326.663 40.72C326.295 41.168 325.943 41.544 325.607 41.848C325.271 42.152 324.911 42.4 324.527 42.592C325.055 42.784 325.527 43.056 325.943 43.408C326.375 43.76 326.791 44.208 327.191 44.752L339.239 61H333.527C332.759 61 332.183 60.896 331.799 60.688C331.431 60.464 331.119 60.144 330.863 59.728L321.047 46.912C320.727 46.496 320.367 46.2 319.967 46.024C319.567 45.832 318.999 45.736 318.263 45.736H316.223V61H309.767V26.272H316.223V40.84ZM349.043 36.376V61H343.115V36.376H349.043ZM349.931 29.2C349.931 29.712 349.827 30.192 349.619 30.64C349.411 31.088 349.131 31.48 348.779 31.816C348.443 32.152 348.043 32.424 347.579 32.632C347.115 32.824 346.619 32.92 346.091 32.92C345.579 32.92 345.091 32.824 344.627 32.632C344.179 32.424 343.787 32.152 343.451 31.816C343.115 31.48 342.843 31.088 342.635 30.64C342.443 30.192 342.347 29.712 342.347 29.2C342.347 28.672 342.443 28.176 342.635 27.712C342.843 27.248 343.115 26.848 343.451 26.512C343.787 26.176 344.179 25.912 344.627 25.72C345.091 25.512 345.579 25.408 346.091 25.408C346.619 25.408 347.115 25.512 347.579 25.72C348.043 25.912 348.443 26.176 348.779 26.512C349.131 26.848 349.411 27.248 349.619 27.712C349.827 28.176 349.931 28.672 349.931 29.2ZM355.762 61V36.376H359.386C360.154 36.376 360.658 36.736 360.898 37.456L361.306 39.4C361.802 38.888 362.322 38.424 362.866 38.008C363.426 37.592 364.01 37.232 364.618 36.928C365.242 36.624 365.906 36.392 366.61 36.232C367.314 36.072 368.082 35.992 368.914 35.992C370.258 35.992 371.45 36.224 372.49 36.688C373.53 37.136 374.394 37.776 375.082 38.608C375.786 39.424 376.314 40.408 376.666 41.56C377.034 42.696 377.218 43.952 377.218 45.328V61H371.29V45.328C371.29 43.824 370.938 42.664 370.234 41.848C369.546 41.016 368.506 40.6 367.114 40.6C366.09 40.6 365.13 40.832 364.234 41.296C363.338 41.76 362.49 42.392 361.69 43.192V61H355.762ZM391.563 35.944C392.619 35.944 393.611 36.056 394.539 36.28C395.467 36.488 396.315 36.8 397.083 37.216H404.163V39.424C404.163 39.792 404.067 40.08 403.875 40.288C403.683 40.496 403.355 40.64 402.891 40.72L400.683 41.128C400.843 41.544 400.963 41.984 401.043 42.448C401.139 42.912 401.187 43.4 401.187 43.912C401.187 45.128 400.939 46.232 400.443 47.224C399.963 48.2 399.291 49.032 398.427 49.72C397.579 50.408 396.563 50.944 395.379 51.328C394.211 51.696 392.939 51.88 391.563 51.88C390.635 51.88 389.731 51.792 388.851 51.616C388.083 52.08 387.699 52.6 387.699 53.176C387.699 53.672 387.923 54.04 388.371 54.28C388.835 54.504 389.435 54.664 390.171 54.76C390.923 54.856 391.771 54.92 392.715 54.952C393.659 54.968 394.627 55.016 395.619 55.096C396.611 55.176 397.579 55.32 398.523 55.528C399.467 55.72 400.307 56.032 401.043 56.464C401.795 56.896 402.395 57.488 402.843 58.24C403.307 58.976 403.539 59.928 403.539 61.096C403.539 62.184 403.267 63.24 402.723 64.264C402.195 65.288 401.419 66.2 400.395 67C399.387 67.8 398.147 68.44 396.675 68.92C395.203 69.416 393.523 69.664 391.635 69.664C389.763 69.664 388.139 69.48 386.763 69.112C385.387 68.76 384.243 68.28 383.331 67.672C382.435 67.08 381.763 66.392 381.315 65.608C380.867 64.824 380.643 64.008 380.643 63.16C380.643 62.008 380.995 61.04 381.699 60.256C382.403 59.472 383.379 58.848 384.627 58.384C384.019 58.048 383.531 57.6 383.163 57.04C382.795 56.48 382.611 55.752 382.611 54.856C382.611 54.488 382.675 54.112 382.803 53.728C382.931 53.328 383.123 52.936 383.379 52.552C383.651 52.168 383.987 51.808 384.387 51.472C384.787 51.12 385.259 50.808 385.803 50.536C384.555 49.864 383.571 48.968 382.851 47.848C382.147 46.728 381.795 45.416 381.795 43.912C381.795 42.696 382.035 41.6 382.515 40.624C383.011 39.632 383.691 38.792 384.555 38.104C385.435 37.4 386.467 36.864 387.651 36.496C388.851 36.128 390.155 35.944 391.563 35.944ZM398.067 62.104C398.067 61.624 397.923 61.232 397.635 60.928C397.347 60.624 396.955 60.392 396.459 60.232C395.963 60.056 395.379 59.928 394.707 59.848C394.051 59.768 393.347 59.712 392.595 59.68C391.859 59.632 391.091 59.592 390.291 59.56C389.507 59.512 388.747 59.44 388.011 59.344C387.339 59.712 386.795 60.152 386.379 60.664C385.979 61.16 385.779 61.736 385.779 62.392C385.779 62.824 385.883 63.224 386.091 63.592C386.315 63.976 386.659 64.304 387.123 64.576C387.603 64.848 388.219 65.056 388.971 65.2C389.723 65.36 390.643 65.44 391.731 65.44C392.835 65.44 393.787 65.352 394.587 65.176C395.387 65.016 396.043 64.784 396.555 64.48C397.083 64.192 397.467 63.84 397.707 63.424C397.947 63.024 398.067 62.584 398.067 62.104ZM391.563 48.088C392.299 48.088 392.939 47.992 393.483 47.8C394.027 47.592 394.475 47.312 394.827 46.96C395.195 46.608 395.467 46.184 395.643 45.688C395.835 45.192 395.931 44.648 395.931 44.056C395.931 42.84 395.563 41.88 394.827 41.176C394.107 40.456 393.019 40.096 391.563 40.096C390.107 40.096 389.011 40.456 388.275 41.176C387.555 41.88 387.195 42.84 387.195 44.056C387.195 44.632 387.283 45.168 387.459 45.664C387.651 46.16 387.923 46.592 388.275 46.96C388.643 47.312 389.099 47.592 389.643 47.8C390.203 47.992 390.843 48.088 391.563 48.088Z" fill="#17E88F"/>
<path d="M27.195 5.10449C28.2401 29.0121 27.2382 53.074 29.4041 76.8985" stroke="#17E88F" stroke-width="8" stroke-linecap="round"/>
<path d="M21.6724 4C19.9006 4.25312 23.3788 6.07884 23.3905 6.08632C29.1459 9.76146 35.4096 12.4789 41.5538 15.4134C43.5855 16.3838 56.0636 21.013 55.9126 23.8814C55.6868 28.172 41.625 34.4702 38.8539 36.0312C27.0082 42.7037 14.8335 48.892 4 57.0171" stroke="#17E88F" stroke-width="8" stroke-linecap="round"/>
</svg>
