<svg width="45" height="49" viewBox="0 0 45 49" fill="none" xmlns="http://www.w3.org/2000/svg">
<path d="M23.5355 0.807038C26.2531 0.766968 28.9551 0.790713 31.654 0.766968C31.8176 3.79598 32.9607 6.88138 35.2874 9.02291C37.6094 11.2179 40.8939 12.2226 44.0896 12.5624V20.5305C41.0948 20.437 38.086 19.8434 35.3684 18.6145C34.1848 18.104 33.0821 17.4466 32.0029 16.7743C31.9889 22.5563 32.0278 28.3308 31.964 34.0891C31.802 36.8554 30.8442 39.6084 29.156 41.8879C26.44 45.6827 21.7258 48.1567 16.8839 48.2338C13.914 48.3956 10.9473 47.6239 8.41653 46.2021C4.22254 43.8454 1.27132 39.5312 0.841487 34.9008C0.787344 33.9202 0.77903 32.9378 0.816569 31.9564C1.19034 28.1913 3.14484 24.5894 6.17859 22.1392C9.61726 19.2853 14.4342 17.9259 18.9443 18.7303C18.9864 21.6614 18.8634 24.5894 18.8634 27.5205C16.803 26.8853 14.3953 27.0634 12.595 28.2551C11.2778 29.082 10.2824 30.2986 9.7621 31.7175C9.33226 32.7207 9.4553 33.8353 9.48022 34.9008C9.9739 38.148 13.2506 40.8772 16.7485 40.5819C19.0674 40.5582 21.2897 39.2759 22.4983 37.3986C22.8892 36.7411 23.3268 36.0688 23.3501 35.2956C23.5542 31.7561 23.4732 28.2314 23.4981 24.6919C23.5152 16.7149 23.4732 8.76023 23.537 0.808522L23.5355 0.807038Z" fill="#17E88F"/>
</svg>
