<svg width="62" height="49" viewBox="0 0 62 49" fill="none" xmlns="http://www.w3.org/2000/svg">
<path d="M61.992 5.69652C59.7123 6.65916 57.2633 7.30959 54.6887 7.60358C57.3452 6.08884 59.3326 3.70481 60.2802 0.896342C57.7843 2.30905 55.0528 3.30344 52.2042 3.83629C50.2887 1.88725 47.7514 0.59539 44.9865 0.161287C42.2215 -0.272816 39.3834 0.175122 36.913 1.43556C34.4425 2.69599 32.4779 4.6984 31.324 7.1319C30.1702 9.5654 29.8917 12.2938 30.5319 14.8936C25.4747 14.6516 20.5274 13.399 16.0111 11.2171C11.4948 9.03521 7.51036 5.97272 4.31645 2.22842C3.22437 4.02361 2.59642 6.10499 2.59642 8.32166C2.59521 10.3172 3.11088 12.2821 4.0977 14.0422C5.08452 15.8022 6.51198 17.3029 8.2534 18.4111C6.23381 18.3499 4.25877 17.8299 2.49268 16.8943V17.0504C2.49247 19.8492 3.5084 22.5619 5.36808 24.7281C7.22776 26.8944 9.81664 28.3808 12.6954 28.9351C10.8219 29.4183 8.8577 29.4895 6.9511 29.1432C7.76333 31.5514 9.34547 33.6573 11.476 35.166C13.6066 36.6748 16.179 37.5109 18.8329 37.5572C14.3277 40.9275 8.76365 42.7557 3.03599 42.7477C2.02139 42.7479 1.00765 42.6915 0 42.5785C5.8139 46.1408 12.5817 48.0313 19.4937 48.0239C42.8915 48.0239 55.6825 29.5569 55.6825 13.5407C55.6825 13.0204 55.6688 12.4948 55.6443 11.9745C58.1323 10.2599 60.2799 8.13667 61.9865 5.70433L61.992 5.69652Z" fill="#17E88F"/>
</svg>
