<svg width="66" height="42" viewBox="0 0 66 42" fill="none" xmlns="http://www.w3.org/2000/svg">
<path d="M63.819 6.54286C63.4532 5.29939 62.7406 4.17361 61.7571 3.28521C60.7458 2.36949 59.5062 1.71445 58.1555 1.38192C53.1004 0.112207 32.8477 0.112207 32.8477 0.112207C24.4046 0.0206664 15.9635 0.423286 7.57217 1.31779C6.22142 1.67489 4.98422 2.34456 3.9706 3.26725C2.97466 4.18042 2.25327 5.30649 1.87642 6.54029C0.971169 11.1876 0.531334 15.9063 0.562849 20.6328C0.530548 25.3551 0.969303 30.0723 1.87642 34.7254C2.24519 35.9541 2.96389 37.075 3.96253 37.9805C4.96117 38.8859 6.20476 39.54 7.57217 39.8863C12.6946 41.1535 32.8477 41.1535 32.8477 41.1535C41.3016 41.2451 49.7534 40.8425 58.1555 39.9479C59.5062 39.6154 60.7458 38.9603 61.7571 38.0446C62.7403 37.1564 63.452 36.0304 63.8163 34.7869C64.7452 30.1415 65.1968 25.4208 65.1648 20.6918C65.2347 15.9429 64.7836 11.1999 63.819 6.54029V6.54286ZM26.409 29.4157V11.8526L43.2594 20.6354L26.409 29.4157Z" fill="#17E88F"/>
</svg>
