<svg width="69" height="326" viewBox="0 0 69 326" fill="none" xmlns="http://www.w3.org/2000/svg">
<path d="M-53.4371 4.90416C-23.1213 23.9641 8.68561 39.6948 39.9045 57.103C45.0094 59.9496 58.1081 65.9552 58.6768 73.0073C59.5272 83.5518 39.7977 96.6176 33.5499 102.333C20.4275 114.336 7.60663 126.6 -4.14834 139.962C-9.8656 146.461 -23.925 159.998 -23.9645 170.146C-23.9911 176.996 -5.63377 169.821 -4.13716 169.383C9.78694 165.311 27.6348 158.268 42.3548 162.419C50.215 164.636 41.4821 172.094 39.5587 174.178C31.1902 183.25 20.9483 192.146 14.7416 202.919C10.8285 209.71 20.3857 209.739 24.7161 210.572C36.3889 212.818 47.8565 216.07 56.4378 224.842C83.4727 252.48 27.7267 295.47 62.4854 321.344" stroke="#012A2D" stroke-width="8" stroke-linecap="round"/>
</svg>
